# xmcd
#
# Track frame offsets:
#	182
#	13465
#	27927
#	44300
#	64655
#	86605
#	102320
#	116917
#	140977
#	160487
#	175745
#	196737
#	211685
#	222905
#	236387
#	250612
#	270110
#
# Disc length: 3743 seconds
#
# Revision: 0
# Processed by: cddbd v1.4PL0 Copyright (c) Steve Scherf et al.
# Submitted via: dBpowerAMP V4.0
#
DISCID=eb0e9d11
DTITLE=Little J C and his blues band - Prisoner of the Blues
DYEAR=1900
DGENRE=Blues
TTITLE0=Let me tell you
TTITLE1=Nine below zero
TTITLE2=If i get lucky
TTITLE3=Don't start me to talking
TTITLE4=Chicken shack
TTITLE5=Sloppy drunk
TTITLE6=I been waiting
TTITLE7=I'll kill myself
TTITLE8=Baby please don't go
TTITLE9=Rocker
TTITLE10=Prisoner of the blues
TTITLE11=Knocking at your door
TTITLE12=West coast walk
TTITLE13=You come babe
TTITLE14=Going down slow
TTITLE15=I'll see my mistakes
TTITLE16=Goodtime boogie
EXTD=
EXTT0=
EXTT1=
EXTT2=
EXTT3=
EXTT4=
EXTT5=
EXTT6=
EXTT7=
EXTT8=
EXTT9=
EXTT10=
EXTT11=
EXTT12=
EXTT13=
EXTT14=
EXTT15=
EXTT16=
PLAYORDER=
